# xmcd CD database file
#
# Track frame offsets:
#	150
#	20130
#	40716
#	57049
#	79255
#	99130
#	117167
#	134397
#	153477
#	181192
#	201743
#	221226
#
# Disc length: 3261 seconds
#
# Revision: 0
# Processed by: cddbd v1.5.2PL0 Copyright (c) Steve Scherf et al.
# Submitted via: CDex 1.51
#
DISCID=a60cbb0c
DTITLE=K.K. Martin - Naked Blues Vol. 2
DYEAR=2011
DGENRE=Blues
TTITLE0=Rattlesnake Shake
TTITLE1=Slow Motion Daddy
TTITLE2=Gin Soaked Boy
TTITLE3=Alligator Wine
TTITLE4=Old # 7
TTITLE5=Dallas
TTITLE6=No One Can Forgive Me
TTITLE7=Your Darkest Hour
TTITLE8=Too Much Alcohol
TTITLE9=Leave The Back Door Open
TTITLE10=Parish Ragg
TTITLE11=See That My Grave Is Kept Clean
EXTD=YEAR: 2011
EXTT0=
EXTT1=
EXTT2=
EXTT3=
EXTT4=
EXTT5=
EXTT6=
EXTT7=
EXTT8=
EXTT9=
EXTT10=
EXTT11=
PLAYORDER=
